<svg xmlns="http://www.w3.org/2000/svg" version="1.1" xmlns:xlink="http://www.w3.org/1999/xlink" xmlns:svgjs="http://svgjs.dev/svgjs" width="1500" height="1500" viewBox="0 0 1500 1500"><rect width="1500" height="1500" fill="#ffffff"></rect><g transform="matrix(0.6666666666666666,0,0,0.6666666666666666,249.39393939393938,600.1838651267861)"><svg viewBox="0 0 396 119" data-background-color="#ffffff" preserveAspectRatio="xMidYMid meet" height="450" width="1500" xmlns="http://www.w3.org/2000/svg" xmlns:xlink="http://www.w3.org/1999/xlink"><g id="tight-bounds" transform="matrix(1,0,0,1,0.2400000000000091,-0.07293316695850649)"><svg viewBox="0 0 395.52 119.14586633391703" height="119.14586633391703" width="395.52"><g><svg viewBox="0 0 397.4975999999999 119.7415956655866" height="119.14586633391703" width="395.52"><g><rect width="397.4975999999999" height="3.6675269248038407" x="0" y="65.80471707596891" fill="#000000" opacity="1" stroke-width="0" stroke="transparent" fill-opacity="1" class="rect-yte-0" data-fill-palette-color="secondary" rx="1%" id="yte-0" data-palette-color="#d7dbde"></rect></g><g transform="matrix(1,0,0,1,0.9887999999999693,79.07309982486657)"><svg viewBox="0 0 395.52 40.668495840720034" height="40.668495840720034" width="395.52"><g id="textblocktransform"><svg viewBox="0 0 395.52 40.668495840720034" height="40.668495840720034" width="395.52" id="textblock"><g><svg viewBox="0 0 395.52 40.668495840720034" height="40.668495840720034" width="395.52"><g transform="matrix(1,0,0,1,0,0)"><svg width="395.52" viewBox="2.8 -36.55 366.63 37.699999999999996" height="40.668495840720034" data-palette-color="#1d2c9f"><path d="M23.65-6.45L23.65-6.45 23.65-2.25Q23.65-0.1 20.73 0.05 17.8 0.2 14.38 0.2 10.95 0.2 6.55-0.05L6.55-0.05Q5.1-0.15 4.23-1.05 3.35-1.95 3.2-3.1L3.2-3.1Q2.8-7.5 2.8-16.93 2.8-26.35 3.1-30.65 3.4-34.95 7.45-35L7.45-35Q12.1-35.1 17.4-35.1 22.7-35.1 28.88-34.95 35.05-34.8 38.95-30.3 42.85-25.8 42.85-20.4 42.85-15 39.4-11.5 35.95-8 29.3-8L29.3-8 25.4-8Q24.75-8 24.2-7.55 23.65-7.1 23.65-6.45ZM23.6-24.55L23.6-24.55 23.7-15.3Q23.7-14.35 24.75-14.35L24.75-14.35Q27.85-14.35 29.63-16.07 31.4-17.8 31.4-20.15 31.4-22.5 29.73-24.2 28.05-25.9 24.8-25.9L24.8-25.9Q23.6-25.9 23.6-24.55ZM62.8-23.25L62.8-23.25 62.75-11.05Q62.75-9.6 63.4-8.85 64.05-8.1 65.07-8.1 66.1-8.1 67.02-8.88 67.95-9.65 68.35-11L68.35-11 68.35-14.05Q68.35-20.65 68.65-23.05L68.65-23.05Q68.8-23.9 69.5-24.55 70.2-25.2 71.97-25.33 73.75-25.45 75.5-25.45 77.25-25.45 81.45-25.25L81.45-25.25Q82.65-25.2 83.35-24.55 84.05-23.9 84.15-23.05L84.15-23.05Q84.5-19.8 84.5-13.08 84.5-6.35 84.3-3.9 84.1-1.45 83.55-0.7 83 0.05 81.3 0.05L81.3 0.05 71.55 0.05Q69.85 0.05 69.27-0.7 68.7-1.45 68.55-3.25L68.55-3.25 68.55-3.3Q63.4 0.65 58.1 0.65 52.8 0.65 50.07-1.98 47.35-4.6 47.27-9.4 47.2-14.2 47.2-17.95 47.2-21.7 47.25-23 47.3-24.3 47.92-24.88 48.55-25.45 50.35-25.45L50.35-25.45 59.95-25.55Q61.55-25.55 62.17-24.98 62.8-24.4 62.8-23.25ZM93.75-36.55L93.75-36.55 103.34-36.55Q105-36.55 105.55-35.77 106.09-35 106.25-33.3L106.25-33.3Q106.55-27.3 106.55-16.73 106.55-6.15 106.15-2.15L106.15-2.15Q106.05-1.35 105.34-0.7 104.65-0.05 102.87 0.08 101.09 0.2 98.7 0.2 96.3 0.2 94.4 0.1L94.4 0.1Q91.15-0.15 91-2.15L91-2.15Q90.5-6.5 90.5-17.57 90.5-28.65 90.9-33.3L90.9-33.3Q91.05-35 91.57-35.77 92.09-36.55 93.75-36.55ZM155.34-2.15L155.34-2.15 155.39-14.35Q155.39-15.85 154.64-16.6 153.89-17.35 152.77-17.35 151.64-17.35 150.72-16.57 149.79-15.8 149.79-14.4L149.79-14.4 149.84-7.15Q149.84-3.7 149.79-2.4 149.74-1.1 149.12-0.53 148.49 0.05 146.69 0.05L146.69 0.05 137.09 0.15Q135.49 0.15 134.87-0.43 134.24-1 134.24-2.15L134.24-2.15 134.29-14.35Q134.29-15.85 133.54-16.6 132.79-17.35 131.67-17.35 130.54-17.35 129.62-16.57 128.69-15.8 128.69-14.4L128.69-14.4 128.69-11.35Q128.69-4.75 128.39-2.35L128.39-2.35Q128.24-1.5 127.54-0.85 126.84-0.2 125.07-0.08 123.29 0.05 121.54 0.05 119.79 0.05 115.59-0.15L115.59-0.15Q114.39-0.2 113.69-0.85 112.99-1.5 112.89-2.35L112.89-2.35Q112.54-5.6 112.54-12.3 112.54-19 112.74-21.48 112.94-23.95 113.49-24.7 114.04-25.45 115.74-25.45L115.74-25.45 125.49-25.45Q127.19-25.45 127.77-24.7 128.34-23.95 128.49-22.15L128.49-22.15 128.49-22.1Q132.34-26.1 138.29-26.1L138.29-26.1Q141.94-26.1 144.64-24.7 147.34-23.3 148.64-20.6L148.64-20.6Q150.29-23.3 153.17-24.7 156.04-26.1 159.39-26.1L159.39-26.1Q164.49-26.1 167.64-23.4 170.79-20.7 170.87-15.95 170.94-11.2 170.94-7.45 170.94-3.7 170.89-2.4 170.84-1.1 170.22-0.53 169.59 0.05 167.79 0.05L167.79 0.05 158.19 0.15Q156.59 0.15 155.97-0.43 155.34-1 155.34-2.15ZM191.14-12.5Q191.14-6.9 194.09-6.9 197.04-6.9 197.04-12.5L197.04-12.5Q197.04-15.05 196.44-16.43 195.84-17.8 194.09-17.8 192.34-17.8 191.74-16.43 191.14-15.05 191.14-12.5L191.14-12.5ZM212.74-12.5Q212.74 1.1 194.09 1.1 175.44 1.1 175.44-12.5L175.44-12.5Q175.44-18.95 180.19-22.5 184.94-26.05 194.09-26.05 203.24-26.05 207.99-22.5 212.74-18.95 212.74-12.5L212.74-12.5ZM233.24 1Q228.94 1 225.21 0.05 221.49-0.9 219.96-1.85 218.44-2.8 217.94-3.2L217.94-3.2Q216.64-4.25 216.64-6.1L216.64-6.1Q216.64-7.55 216.99-8.85L216.99-8.85Q217.64-11.3 219.34-11.3L219.34-11.3Q219.89-11.25 222.86-10.15 225.84-9.05 227.54-9.05L227.54-9.05Q230.09-9.05 230.09-11.05L230.09-11.05Q230.09-12.25 228.84-13.28 227.59-14.3 225.81-15.25 224.04-16.2 222.24-17.43 220.44-18.65 219.19-20.83 217.94-23 217.94-25.9L217.94-25.9Q217.94-30.7 222.64-33.43 227.34-36.15 234.79-36.15 242.24-36.15 246.61-34.63 250.99-33.1 250.99-30.4L250.99-30.4Q250.99-28.45 250.09-26.98 249.19-25.5 248.19-25.5L248.19-25.5Q247.84-25.5 245.86-26.28 243.89-27.05 242.29-27.05L242.29-27.05Q239.14-27.05 239.14-24.6L239.14-24.6Q239.14-23.4 240.64-22.4 242.14-21.4 244.26-20.48 246.39-19.55 248.54-18.4 250.69-17.25 252.19-15.25 253.69-13.25 253.69-10.4 253.69-7.55 251.86-5.2 250.04-2.85 247.04-1.55L247.04-1.55Q241.09 1 233.24 1L233.24 1ZM279.19-18.25L279.19-18.25Q276.83-18.25 275.69-16.7 274.54-15.15 274.54-12.85 274.54-10.55 275.88-8.9 277.24-7.25 280.24-7.25L280.24-7.25Q281.19-7.25 283.04-7.75 284.88-8.25 285.63-8.25L285.63-8.25Q287.38-8.25 287.49-4.9L287.49-4.9Q287.49-3.45 287.31-2.2 287.13-0.95 285.44-0.4L285.44-0.4Q280.44 1.15 276.61 1.15 272.79 1.15 270.36 0.88 267.94 0.6 265.46-0.25 262.99-1.1 261.36-2.5 259.74-3.9 258.71-6.28 257.69-8.65 257.69-12.28 257.69-15.9 259.26-18.75 260.83-21.6 263.58-23.1L263.58-23.1Q268.79-25.9 276.58-25.9L276.58-25.9Q280.79-25.9 285.13-24.55L285.13-24.55Q286.99-23.95 286.99-20.53 286.99-17.1 285.24-17.1L285.24-17.1Q284.49-17.1 282.51-17.68 280.54-18.25 279.19-18.25ZM309.58-26.25L309.58-26.25Q325.88-26.25 326.03-15.65L326.03-15.65Q326.13-11.15 326.13-7.4 326.13-3.65 326.08-2.35 326.03-1.05 325.41-0.48 324.78 0.1 322.98 0.1L322.98 0.1 312.38 0.1Q310.78 0.1 310.18-0.48 309.58-1.05 309.53-2.2L309.53-2.2Q309.53-2.25 309.51-2.38 309.48-2.5 309.48-2.6L309.48-2.6Q306.18 0.8 300.48 0.8L300.48 0.8Q296.53 0.8 293.76-1.18 290.98-3.15 290.98-6.63 290.98-10.1 292.96-12.18 294.93-14.25 297.66-15 300.38-15.75 303.51-15.75 306.63-15.75 309.63-15.15L309.63-15.15 309.63-15.35Q309.63-17.85 308.66-18.95 307.68-20.05 305.51-20.05 303.33-20.05 301.88-19.68 300.43-19.3 299.68-18.9L299.68-18.9Q297.63-17.7 296.83-17.7 296.03-17.7 295.41-18.45 294.78-19.2 294.78-20.78 294.78-22.35 295.36-22.95 295.93-23.55 297.18-24.15L297.18-24.15Q301.53-26.25 309.58-26.25ZM307.23-5.8L307.23-5.8Q309.43-5.8 309.48-6.65L309.48-6.65Q309.58-8.3 309.58-11L309.58-11Q309.58-12.05 307.98-12.05 306.38-12.05 305.38-11.28 304.38-10.5 304.38-9 304.38-7.5 305.21-6.65 306.03-5.8 307.23-5.8ZM353.83-2.15L353.83-2.15 353.88-14.35Q353.88-15.85 353.13-16.6 352.38-17.35 351.26-17.35 350.13-17.35 349.21-16.57 348.28-15.8 348.28-14.4L348.28-14.4 348.28-11.35Q348.28-4.75 347.98-2.35L347.98-2.35Q347.83-1.5 347.13-0.85 346.43-0.2 344.66-0.08 342.88 0.05 341.13 0.05 339.38 0.05 335.18-0.15L335.18-0.15Q333.98-0.2 333.28-0.85 332.58-1.5 332.48-2.35L332.48-2.35Q332.13-5.6 332.13-12.3 332.13-19 332.33-21.48 332.53-23.95 333.08-24.7 333.63-25.45 335.33-25.45L335.33-25.45 345.08-25.45Q346.78-25.45 347.36-24.7 347.93-23.95 348.08-22.15L348.08-22.15 348.08-22.1Q351.93-26.1 357.46-26.1 362.98-26.1 366.13-23.4 369.28-20.7 369.36-15.95 369.43-11.2 369.43-7.45 369.43-3.7 369.38-2.4 369.33-1.1 368.71-0.53 368.08 0.05 366.28 0.05L366.28 0.05 356.68 0.15Q355.08 0.15 354.46-0.43 353.83-1 353.83-2.15Z" opacity="1" transform="matrix(1,0,0,1,0,0)" fill="#000000" class="wordmark-text-0" data-fill-palette-color="primary" id="text-0"></path></svg></g></svg></g></svg></g></svg></g><g transform="matrix(1,0,0,1,162.64616561180688,0)"><svg viewBox="0 0 72.20526877638618 56.20386125187509" height="56.20386125187509" width="72.20526877638618"><g><svg xmlns="http://www.w3.org/2000/svg" xmlns:xlink="http://www.w3.org/1999/xlink" version="1.1" x="8" y="0" viewBox="9.951 9.944 79.864 79.862" enable-background="new 0 0 100 100" xml:space="preserve" height="56.20386125187509" width="56.20526877638618" class="icon-icon-0" data-fill-palette-color="accent" id="icon-0"><path fill="none" d="M50.857 78.341L52.094 21.417C52.094 20.009 51.025 19.364 50.032 19.364S47.97 20.009 47.97 21.426L49.207 77.095V78.342C49.207 79.48 49.632 80.095 50.032 80.095 50.432 80.094 50.857 79.48 50.857 78.341"></path><path d="M63.193 36.565V9.944H36.573V36.564H9.951V63.184H36.573V89.806H63.193V63.185H89.815V36.565zM48.557 63.418L48.386 55.712C48.894 54.428 49.894 53.654 51.049 52.892L50.879 60.738A4.45 4.45 0 0 1 49.44 62.798 11 11 0 0 0 48.557 63.418M53.511 50.057C52.787 50.781 51.934 51.332 51.11 51.866 49.345 53.008 47.525 54.187 47.242 56.992 45.643 55.594 45.554 53.309 45.554 52.824 45.554 51.515 46.972 50.483 48.473 49.389 50.391 47.992 52.565 46.409 52.565 43.75V39.713C54.287 41.349 55.277 43.289 55.376 45.252 55.466 47.058 54.803 48.765 53.511 50.057M51.205 45.684C50.554 46.806 49.396 47.693 48.227 48.548L47.817 30.133C48.043 30.06 48.273 29.989 48.503 29.92 49.753 29.545 51.138 29.129 51.588 28.044zM48.267 29.129C46.941 29.526 45.571 29.936 45.1 31.073 44.779 31.848 44.943 32.821 45.613 34.063L46.792 36.027V40.373C43.407 37.216 41.912 32.133 43.457 28.657L43.475 28.608C44.094 26.544 46.369 25.465 48.296 25.465 49.505 25.465 50.916 25.933 50.916 27.252 50.915 28.263 49.915 28.636 48.267 29.129M47.621 71.868C46.7 70.567 46.325 69.265 46.505 67.985 46.742 66.302 47.946 64.703 49.897 63.484L49.936 63.457C51.898 61.887 52.123 59.688 52.15 57.135 53.441 58.666 53.599 60.271 53.477 61.414 53.258 63.458 51.951 65.544 50.319 66.478 47.946 67.664 47.657 69.233 47.621 71.868M52.325 76.213C52.098 77.069 51.514 77.933 50.744 78.259 51.291 76.777 51.646 75.341 51.724 73.44 52.487 74.225 52.558 75.335 52.325 76.213M49.678 19.005C50.671 19.005 51.74 19.65 51.74 21.058L51.621 26.509C51.248 25.368 50.007 24.642 48.295 24.642 48.098 24.642 47.898 24.656 47.696 24.676L47.616 21.068C47.616 19.65 48.685 19.005 49.678 19.005M49.678 79.735C49.278 79.735 48.853 79.121 48.853 77.982V76.735L48.691 69.424C48.961 68.458 49.524 67.797 50.708 67.204L50.738 67.185 50.545 76.085C50.341 76.954 50.221 77.244 49.869 78.125 49.869 78.125 49.648 78.915 49.806 79.089S50.092 79.218 50.092 79.218C50.156 79.218 50.218 79.203 50.281 79.198 50.12 79.55 49.896 79.735 49.678 79.735" fill="#000000" data-fill-palette-color="accent"></path><path d="M49.619 27.612C52.506 26.375 46.732 26.375 49.619 27.612" fill="#000000" data-fill-palette-color="accent"></path></svg></g></svg></g><g><rect width="86.11304561180691" height="3.6675269248038407" y="51.53633432707125" x="234.85143438819307" fill="#000000" data-fill-palette-color="secondary"></rect><rect width="86.11304561180691" height="3.6675269248038407" y="51.53633432707125" x="76.53311999999997" fill="#000000" data-fill-palette-color="secondary"></rect></g></svg></g><defs></defs></svg><rect width="395.52" height="119.14586633391703" fill="none" stroke="none" visibility="hidden"></rect></g></svg></g></svg>